<?xml version="1.0" encoding="UTF-8" standalone="no"?>
<!-- Created with Inkscape (http://www.inkscape.org/) -->

<svg
   xmlns:dc="http://purl.org/dc/elements/1.1/"
   xmlns:cc="http://creativecommons.org/ns#"
   xmlns:rdf="http://www.w3.org/1999/02/22-rdf-syntax-ns#"
   xmlns:svg="http://www.w3.org/2000/svg"
   xmlns="http://www.w3.org/2000/svg"
   xmlns:sodipodi="http://sodipodi.sourceforge.net/DTD/sodipodi-0.dtd"
   xmlns:inkscape="http://www.inkscape.org/namespaces/inkscape"
   width="97mm"
   height="65mm"
   viewBox="0 0 97 65"
   version="1.1"
   id="svg8"
   inkscape:version="0.92.3 (2405546, 2018-03-11)"
   sodipodi:docname="Logo LNS.svg">
  <defs
     id="defs2" />
  <sodipodi:namedview
     id="base"
     pagecolor="#ffffff"
     bordercolor="#666666"
     borderopacity="1.0"
     inkscape:pageopacity="0.0"
     inkscape:pageshadow="2"
     inkscape:zoom="2.8284271"
     inkscape:cx="116.4809"
     inkscape:cy="102.33358"
     inkscape:document-units="mm"
     inkscape:current-layer="layer1"
     showgrid="false"
     inkscape:window-width="2560"
     inkscape:window-height="1377"
     inkscape:window-x="-8"
     inkscape:window-y="-8"
     inkscape:window-maximized="1"
     fit-margin-top="0"
     fit-margin-left="0"
     fit-margin-right="0"
     fit-margin-bottom="0" />
  <metadata
     id="metadata5">
    <rdf:RDF>
      <cc:Work
         rdf:about="">
        <dc:format>image/svg+xml</dc:format>
        <dc:type
           rdf:resource="http://purl.org/dc/dcmitype/StillImage" />
        <dc:title></dc:title>
      </cc:Work>
    </rdf:RDF>
  </metadata>
  <g
     inkscape:label="Capa 1"
     inkscape:groupmode="layer"
     id="layer1"
     transform="translate(-62.999376,-86.753818)">
    <g
       id="g1326"
       transform="translate(2.245064,-1.964431)">
      <g
         id="text23"
         style="font-style:normal;font-weight:normal;font-size:22.5411129px;line-height:1.25;font-family:sans-serif;letter-spacing:0px;word-spacing:0px;fill:#000000;fill-opacity:1;stroke:none;stroke-width:1.87842584"
         aria-label="LNS">
        <path
           id="path1196"
           style="font-style:normal;font-variant:normal;font-weight:normal;font-stretch:normal;font-family:Georgia;-inkscape-font-specification:Georgia;fill:#000000;stroke-width:1.87842584"
           d="m 98.162299,119.73884 -0.330192,4.6447 H 85.626006 v -0.78146 q 0.264154,-0.022 0.759442,-0.077 0.506294,-0.055 0.70441,-0.14309 0.330192,-0.14308 0.473275,-0.41824 0.15409,-0.27516 0.15409,-0.70441 v -11.1825 q 0,-0.37422 -0.132077,-0.66039 -0.121071,-0.28616 -0.495288,-0.46227 -0.253148,-0.13207 -0.715417,-0.25314 -0.451262,-0.13208 -0.748435,-0.15409 v -0.78146 h 6.592835 v 0.78146 q -0.308179,0.011 -0.803467,0.11006 -0.484282,0.0991 -0.70441,0.1761 -0.374218,0.13208 -0.517301,0.45127 -0.132077,0.31918 -0.132077,0.68239 v 10.4891 q 0,0.72643 0.06604,1.13366 0.07704,0.39623 0.341198,0.61636 0.253148,0.19812 0.748436,0.26416 0.506294,0.055 1.408819,0.055 0.407237,0 0.847493,-0.022 0.440256,-0.022 0.836487,-0.0881 0.385224,-0.066 0.70441,-0.1761 0.330192,-0.12107 0.484281,-0.29717 0.451263,-0.5063 1.045609,-1.52989 0.605352,-1.0346 0.836486,-1.67297 z"
           inkscape:connector-curvature="0" />
        <path
           id="path1198"
           style="font-style:normal;font-variant:normal;font-weight:normal;font-stretch:normal;font-family:Georgia;-inkscape-font-specification:Georgia;fill:#000000;stroke-width:1.87842584"
           d="m 115.25524,109.54691 q -0.30818,0.011 -0.94655,0.1761 -0.63837,0.16509 -0.91353,0.3412 -0.39623,0.27516 -0.53931,1.05661 -0.13208,0.78146 -0.13208,1.98115 v 11.43566 h -0.95756 l -9.4655,-12.77844 v 8.05669 q 0,1.35379 0.16509,2.08021 0.17611,0.72642 0.52831,1.0346 0.25315,0.24214 1.04561,0.45126 0.79246,0.20913 1.04561,0.22013 v 0.78146 H 98.6796 v -0.78146 q 0.297173,-0.022 1.001583,-0.20912 0.704407,-0.19811 0.880517,-0.3522 0.38522,-0.30818 0.5283,-0.93555 0.14309,-0.63837 0.14309,-2.16826 v -7.69347 q 0,-0.5063 -0.17611,-1.01259 -0.1761,-0.5063 -0.47327,-0.78146 -0.39623,-0.36321 -1.07863,-0.61636 -0.67139,-0.26415 -1.089634,-0.28616 v -0.78146 h 4.457594 l 8.78311,11.90893 v -7.42932 q 0,-1.3648 -0.1761,-2.09122 -0.17611,-0.73743 -0.5063,-0.97957 -0.30818,-0.20912 -1.01259,-0.40724 -0.6934,-0.19811 -1.05661,-0.22012 v -0.78146 h 6.35069 z"
           inkscape:connector-curvature="0" />
        <path
           id="path1200"
           style="font-style:normal;font-variant:normal;font-weight:normal;font-stretch:normal;font-family:Georgia;-inkscape-font-specification:Georgia;fill:#000000;stroke-width:1.87842584"
           d="m 126.25064,117.21837 q 0.49529,0.55032 0.72642,1.2107 0.24214,0.64938 0.24214,1.51889 0,2.0692 -1.52989,3.41198 -1.52989,1.34278 -3.79721,1.34278 -1.0456,0 -2.09121,-0.31918 -1.04561,-0.33019 -1.80505,-0.79246 l -0.47328,0.80346 h -0.88051 l -0.15409,-5.34911 h 0.89152 q 0.27516,0.99058 0.63837,1.79405 0.37422,0.79246 0.97957,1.48586 0.57233,0.64938 1.33177,1.0346 0.77045,0.38523 1.78304,0.38523 0.75944,0 1.32077,-0.19812 0.57233,-0.19811 0.92454,-0.56133 0.3522,-0.36321 0.5173,-0.84749 0.1761,-0.49529 0.1761,-1.13366 0,-0.93554 -0.52831,-1.73901 -0.5283,-0.81447 -1.57391,-1.23272 -0.71542,-0.28616 -1.63996,-0.62736 -0.92453,-0.35221 -1.59592,-0.66039 -1.32077,-0.59434 -2.0582,-1.5519 -0.72642,-0.96856 -0.72642,-2.52047 0,-0.89151 0.36321,-1.66196 0.36321,-0.77045 1.0346,-1.3758 0.63837,-0.57234 1.50788,-0.89152 0.8695,-0.33019 1.81605,-0.33019 1.07863,0 1.92612,0.33019 0.8585,0.33019 1.56291,0.77045 l 0.45126,-0.74844 h 0.88052 l 0.088,5.18402 h -0.89152 q -0.24214,-0.89152 -0.55032,-1.70599 -0.29717,-0.81448 -0.78146,-1.47486 -0.47327,-0.63837 -1.15567,-1.01259 -0.68239,-0.38523 -1.67297,-0.38523 -1.04561,0 -1.78304,0.67139 -0.73743,0.6714 -0.73743,1.63996 0,1.01259 0.47328,1.68398 0.47327,0.66038 1.3758,1.08963 0.80347,0.38523 1.57391,0.67139 0.78146,0.27516 1.50788,0.59435 0.66039,0.28616 1.26574,0.64938 0.61636,0.36321 1.06762,0.84749 z"
           inkscape:connector-curvature="0" />
      </g>
      <path
         inkscape:connector-curvature="0"
         id="path76"
         d="m 135.82943,114.75734 c -0.53311,0 -0.96773,0.40712 -1.02216,0.92604 l -3.93516,0.0951 -1.5875,1.36943 -3.83232,-0.0331 -0.002,0.26562 3.92379,0.0331 1.59112,-1.37097 3.84731,-0.0951 c 0.0763,0.49532 0.50093,0.87799 1.01699,0.87799 0.56979,0 1.0356,-0.46529 1.0356,-1.03508 10e-6,-0.56979 -0.46581,-1.03301 -1.0356,-1.03301 z m 0,0.26354 c 0.42657,0 0.76998,0.3429 0.76998,0.76947 0,0.42658 -0.34341,0.76947 -0.76998,0.76946 -0.42657,0 -0.76946,-0.34289 -0.76946,-0.76946 -1e-5,-0.42657 0.34289,-0.76947 0.76946,-0.76947 z"
         style="color:#000000;font-style:normal;font-variant:normal;font-weight:normal;font-stretch:normal;font-size:medium;line-height:normal;font-family:sans-serif;font-variant-ligatures:normal;font-variant-position:normal;font-variant-caps:normal;font-variant-numeric:normal;font-variant-alternates:normal;font-feature-settings:normal;text-indent:0;text-align:start;text-decoration:none;text-decoration-line:none;text-decoration-style:solid;text-decoration-color:#000000;letter-spacing:normal;word-spacing:normal;text-transform:none;writing-mode:lr-tb;direction:ltr;text-orientation:mixed;dominant-baseline:auto;baseline-shift:baseline;text-anchor:start;white-space:normal;shape-padding:0;clip-rule:nonzero;display:inline;overflow:visible;visibility:visible;opacity:0.85;isolation:auto;mix-blend-mode:normal;color-interpolation:sRGB;color-interpolation-filters:linearRGB;solid-color:#000000;solid-opacity:1;vector-effect:none;fill:#000000;fill-opacity:1;fill-rule:nonzero;stroke:none;stroke-width:0.26499999;stroke-linecap:butt;stroke-linejoin:round;stroke-miterlimit:14.89999962;stroke-dasharray:none;stroke-dashoffset:0;stroke-opacity:1;paint-order:normal;color-rendering:auto;image-rendering:auto;shape-rendering:auto;text-rendering:auto;enable-background:accumulate" />
      <path
         id="path19"
         transform="scale(0.26458333)"
         d="m 523.20703,441.11133 c -2.07273,-4e-5 -3.76543,1.63535 -3.89062,3.67773 h -18.4043 l -2.50195,2.39844 h -22.61719 v 0.9668 h 23.00195 l 2.50977,-2.39844 h 18.0625 c 0.34522,1.80435 1.93674,3.17383 3.83984,3.17383 2.1535,-4e-5 3.9043,-1.75076 3.9043,-3.9043 4e-5,-2.1535 -1.75076,-3.91406 -3.9043,-3.91406 z m 0,1.0039 c 1.61223,0 2.9082,1.29793 2.9082,2.91016 0,1.61223 -1.29597,2.9082 -2.9082,2.9082 -1.61223,4e-5 -2.91015,-1.29593 -2.91015,-2.9082 0,-1.61223 1.29792,-2.91016 2.91015,-2.91016 z"
         style="color:#000000;font-style:normal;font-variant:normal;font-weight:normal;font-stretch:normal;font-size:medium;line-height:normal;font-family:sans-serif;font-variant-ligatures:normal;font-variant-position:normal;font-variant-caps:normal;font-variant-numeric:normal;font-variant-alternates:normal;font-feature-settings:normal;text-indent:0;text-align:start;text-decoration:none;text-decoration-line:none;text-decoration-style:solid;text-decoration-color:#000000;letter-spacing:normal;word-spacing:normal;text-transform:none;writing-mode:lr-tb;direction:ltr;text-orientation:mixed;dominant-baseline:auto;baseline-shift:baseline;text-anchor:start;white-space:normal;shape-padding:0;clip-rule:nonzero;display:inline;overflow:visible;visibility:visible;opacity:1;isolation:auto;mix-blend-mode:normal;color-interpolation:sRGB;color-interpolation-filters:linearRGB;solid-color:#000000;solid-opacity:1;vector-effect:none;fill:#000000;fill-opacity:1;fill-rule:nonzero;stroke:none;stroke-width:0.97259742px;stroke-linecap:butt;stroke-linejoin:miter;stroke-miterlimit:4;stroke-dasharray:none;stroke-dashoffset:0;stroke-opacity:1;color-rendering:auto;image-rendering:auto;shape-rendering:auto;text-rendering:auto;enable-background:accumulate"
         inkscape:connector-curvature="0" />
      <path
         id="path21"
         transform="scale(0.26458333)"
         d="m 531.72461,454.49609 c -2.02728,4e-5 -3.67821,1.56368 -3.86719,3.54297 h -23.74804 l -2.6875,-2.27344 h -25.06836 v 0.98047 h 24.70703 l 2.69531,2.27539 h 24.125 c 0.2964,1.86272 1.89994,3.2988 3.84375,3.29883 2.1535,-4e-5 3.91211,-1.75861 3.91211,-3.91211 4e-5,-2.15353 -1.75857,-3.91207 -3.91211,-3.91211 z m 0,1.00391 c 1.61223,0 2.9082,1.29597 2.9082,2.9082 0,1.61224 -1.29597,2.90821 -2.9082,2.90821 -1.61223,0 -2.9082,-1.29597 -2.9082,-2.90821 -4e-5,-1.61223 1.29593,-2.9082 2.9082,-2.9082 z"
         style="color:#000000;font-style:normal;font-variant:normal;font-weight:normal;font-stretch:normal;font-size:medium;line-height:normal;font-family:sans-serif;font-variant-ligatures:normal;font-variant-position:normal;font-variant-caps:normal;font-variant-numeric:normal;font-variant-alternates:normal;font-feature-settings:normal;text-indent:0;text-align:start;text-decoration:none;text-decoration-line:none;text-decoration-style:solid;text-decoration-color:#000000;letter-spacing:normal;word-spacing:normal;text-transform:none;writing-mode:lr-tb;direction:ltr;text-orientation:mixed;dominant-baseline:auto;baseline-shift:baseline;text-anchor:start;white-space:normal;shape-padding:0;clip-rule:nonzero;display:inline;overflow:visible;visibility:visible;opacity:1;isolation:auto;mix-blend-mode:normal;color-interpolation:sRGB;color-interpolation-filters:linearRGB;solid-color:#000000;solid-opacity:1;vector-effect:none;fill:#000000;fill-opacity:1;fill-rule:nonzero;stroke:none;stroke-width:0.98408389px;stroke-linecap:butt;stroke-linejoin:miter;stroke-miterlimit:4;stroke-dasharray:none;stroke-dashoffset:0;stroke-opacity:1;color-rendering:auto;image-rendering:auto;shape-rendering:auto;text-rendering:auto;enable-background:accumulate"
         inkscape:connector-curvature="0" />
      <path
         id="path23"
         transform="scale(0.26458333)"
         d="m 474.78125,460.57031 v 0.97461 h 17.58984 l 3.96485,3.91211 h 9.38476 c 0.29623,1.86295 1.8998,3.30078 3.84375,3.30078 2.1535,0 3.91211,-1.75857 3.91211,-3.91211 4e-5,-2.1535 -1.75861,-3.90625 -3.91211,-3.90625 -2.02936,0 -3.68298,1.56158 -3.86914,3.54297 h -8.95312 l -3.97071,-3.91211 z m 34.7832,1.36524 c 1.61224,3e-5 2.90821,1.29792 2.90821,2.91015 -4e-5,1.61224 -1.29601,2.90817 -2.90821,2.90821 -1.61227,0 -2.90816,-1.29594 -2.9082,-2.90821 0,-1.61223 1.29593,-2.91015 2.9082,-2.91015 z"
         style="color:#000000;font-style:normal;font-variant:normal;font-weight:normal;font-stretch:normal;font-size:medium;line-height:normal;font-family:sans-serif;font-variant-ligatures:normal;font-variant-position:normal;font-variant-caps:normal;font-variant-numeric:normal;font-variant-alternates:normal;font-feature-settings:normal;text-indent:0;text-align:start;text-decoration:none;text-decoration-line:none;text-decoration-style:solid;text-decoration-color:#000000;letter-spacing:normal;word-spacing:normal;text-transform:none;writing-mode:lr-tb;direction:ltr;text-orientation:mixed;dominant-baseline:auto;baseline-shift:baseline;text-anchor:start;white-space:normal;shape-padding:0;clip-rule:nonzero;display:inline;overflow:visible;visibility:visible;opacity:1;isolation:auto;mix-blend-mode:normal;color-interpolation:sRGB;color-interpolation-filters:linearRGB;solid-color:#000000;solid-opacity:1;vector-effect:none;fill:#000000;fill-opacity:1;fill-rule:nonzero;stroke:none;stroke-width:0.97575986px;stroke-linecap:butt;stroke-linejoin:miter;stroke-miterlimit:4;stroke-dasharray:none;stroke-dashoffset:0;stroke-opacity:1;color-rendering:auto;image-rendering:auto;shape-rendering:auto;text-rendering:auto;enable-background:accumulate"
         inkscape:connector-curvature="0" />
      <path
         id="path26"
         transform="scale(0.26458333)"
         d="m 512.6582,449.07031 c -2.02964,-3e-5 -3.68342,1.56113 -3.86914,3.54297 H 498.5293 l -2.28125,-1.76367 h -19.06836 v 0.97461 h 18.72851 l 2.28907,1.76367 h 10.61718 c 0.2964,1.86272 1.9,3.29883 3.84375,3.29883 2.15354,-4e-5 3.91211,-1.75861 3.91211,-3.91211 0,-2.15354 -1.75857,-3.9043 -3.91211,-3.9043 z m 0,0.9961 c 1.61227,0 2.90821,1.29597 2.90821,2.9082 -4e-5,1.61223 -1.29597,2.9082 -2.90821,2.9082 -1.61223,0 -2.91012,-1.29597 -2.91015,-2.9082 0,-1.61227 1.29792,-2.9082 2.91015,-2.9082 z"
         style="color:#000000;font-style:normal;font-variant:normal;font-weight:normal;font-stretch:normal;font-size:medium;line-height:normal;font-family:sans-serif;font-variant-ligatures:normal;font-variant-position:normal;font-variant-caps:normal;font-variant-numeric:normal;font-variant-alternates:normal;font-feature-settings:normal;text-indent:0;text-align:start;text-decoration:none;text-decoration-line:none;text-decoration-style:solid;text-decoration-color:#000000;letter-spacing:normal;word-spacing:normal;text-transform:none;writing-mode:lr-tb;direction:ltr;text-orientation:mixed;dominant-baseline:auto;baseline-shift:baseline;text-anchor:start;white-space:normal;shape-padding:0;clip-rule:nonzero;display:inline;overflow:visible;visibility:visible;opacity:1;isolation:auto;mix-blend-mode:normal;color-interpolation:sRGB;color-interpolation-filters:linearRGB;solid-color:#000000;solid-opacity:1;vector-effect:none;fill:#000000;fill-opacity:1;fill-rule:nonzero;stroke:none;stroke-width:0.97640055px;stroke-linecap:butt;stroke-linejoin:miter;stroke-miterlimit:4;stroke-dasharray:none;stroke-dashoffset:0;stroke-opacity:1;color-rendering:auto;image-rendering:auto;shape-rendering:auto;text-rendering:auto;enable-background:accumulate"
         inkscape:connector-curvature="0" />
      <path
         inkscape:connector-curvature="0"
         id="path25-80-9"
         d="m 80.835013,118.33541 a 26,26 0 0 0 25.919867,24.40109 26,26 0 0 0 24.90545,-18.62625 h -1.0759 a 24.999999,24.999999 0 0 1 -23.82955,17.62632 24.999999,24.999999 0 0 1 -24.943184,-23.40116 z"
         style="opacity:0.85;fill:#ff6600;fill-opacity:1;stroke:none;stroke-width:0.84591371;stroke-linecap:butt;stroke-linejoin:round;stroke-miterlimit:14.89999962;stroke-dasharray:none;stroke-dashoffset:0;stroke-opacity:1;paint-order:normal" />
      <path
         id="path25-80-6"
         d="M 106.71767,90.796524 A 26,26 0 0 0 82.045791,108.77527 h 1.021125 A 24.999999,24.999999 0 0 1 106.71767,91.796464 24.999999,24.999999 0 0 1 131.5606,114.24832 h 1.02991 A 26,26 0 0 0 106.71767,90.796524 Z"
         style="opacity:0.85;fill:#00aad4;fill-opacity:1;stroke:none;stroke-width:0.84591371;stroke-linecap:butt;stroke-linejoin:round;stroke-miterlimit:14.89999962;stroke-dasharray:none;stroke-dashoffset:0;stroke-opacity:1;paint-order:normal"
         inkscape:connector-curvature="0" />
      <g
         id="text969"
         style="font-style:normal;font-weight:normal;font-size:6.30293322px;line-height:1.25;font-family:sans-serif;letter-spacing:0px;word-spacing:0px;fill:#000000;fill-opacity:1;stroke:none;stroke-width:0.52524436"
         aria-label="Lawrence Network Services Corp.">
        <path
           id="path1139"
           style="font-style:normal;font-variant:normal;font-weight:normal;font-stretch:normal;font-family:Georgia;-inkscape-font-specification:Georgia;stroke-width:0.52524436"
           d="m 66.504769,149.08866 -0.09233,1.29875 h -3.413063 v -0.21851 q 0.07386,-0.006 0.212355,-0.0216 0.14157,-0.0154 0.196967,-0.04 0.09233,-0.04 0.132337,-0.11695 0.04309,-0.0769 0.04309,-0.19696 v -3.12685 q 0,-0.10464 -0.03693,-0.18465 -0.03385,-0.08 -0.138492,-0.12926 -0.07079,-0.0369 -0.200045,-0.0708 -0.126182,-0.0369 -0.209277,-0.0431 v -0.21851 h 1.843485 v 0.21851 q -0.08617,0.003 -0.224665,0.0308 -0.135415,0.0277 -0.196967,0.0492 -0.104638,0.0369 -0.144647,0.12618 -0.03693,0.0893 -0.03693,0.19082 v 2.93295 q 0,0.20312 0.01846,0.317 0.02154,0.11079 0.09541,0.17234 0.07079,0.0554 0.209277,0.0739 0.14157,0.0154 0.393933,0.0154 0.113872,0 0.236976,-0.006 0.123104,-0.006 0.233898,-0.0246 0.107716,-0.0185 0.196966,-0.0493 0.09233,-0.0339 0.135415,-0.0831 0.126182,-0.14157 0.292372,-0.42779 0.169269,-0.28929 0.233898,-0.46779 z"
           inkscape:connector-curvature="0" />
        <path
           id="path1141"
           style="font-style:normal;font-variant:normal;font-weight:normal;font-stretch:normal;font-family:Georgia;-inkscape-font-specification:Georgia;stroke-width:0.52524436"
           d="m 69.597761,150.33201 q -0.144647,0.0523 -0.255441,0.0831 -0.107716,0.0339 -0.246208,0.0339 -0.240053,0 -0.384701,-0.1108 -0.141569,-0.11387 -0.181578,-0.3293 h -0.01847 q -0.200044,0.22159 -0.430865,0.33854 -0.227742,0.11695 -0.550891,0.11695 -0.341614,0 -0.563201,-0.20928 -0.21851,-0.20928 -0.21851,-0.54782 0,-0.17542 0.04924,-0.31391 0.04924,-0.13849 0.147725,-0.24929 0.07694,-0.0923 0.203121,-0.16311 0.126182,-0.0739 0.236976,-0.11695 0.138492,-0.0523 0.560124,-0.19389 0.424709,-0.14157 0.572434,-0.22159 v -0.30468 q 0,-0.04 -0.01847,-0.15388 -0.01539,-0.11387 -0.07078,-0.21543 -0.06155,-0.11387 -0.175424,-0.19697 -0.110793,-0.0862 -0.316993,-0.0862 -0.14157,0 -0.264674,0.0492 -0.120026,0.0462 -0.169268,0.0985 0,0.0616 0.0277,0.18158 0.03078,0.12003 0.03078,0.22159 0,0.10772 -0.09848,0.19697 -0.09541,0.0892 -0.267751,0.0892 -0.153881,0 -0.227743,-0.10772 -0.07079,-0.11079 -0.07079,-0.24621 0,-0.14157 0.09848,-0.27083 0.101561,-0.12925 0.261597,-0.23082 0.138492,-0.0862 0.335458,-0.14464 0.196967,-0.0616 0.384701,-0.0616 0.258519,0 0.44933,0.0369 0.193889,0.0339 0.350847,0.1508 0.156958,0.11387 0.236976,0.31084 0.0831,0.19389 0.0831,0.50165 0,0.44009 -0.0092,0.78171 -0.0092,0.33853 -0.0092,0.7417 0,0.12003 0.04001,0.19081 0.04309,0.0708 0.129259,0.12003 0.04617,0.0277 0.144648,0.0308 0.101561,0.003 0.206199,0.003 z m -1.074084,-1.62498 q -0.261596,0.0769 -0.458563,0.15081 -0.196966,0.0739 -0.366234,0.18465 -0.153881,0.10464 -0.243131,0.24929 -0.08925,0.14157 -0.08925,0.33853 0,0.25545 0.132337,0.37547 0.135415,0.12003 0.341614,0.12003 0.21851,0 0.384701,-0.10464 0.166191,-0.10772 0.280062,-0.25236 z"
           inkscape:connector-curvature="0" />
        <path
           id="path1143"
           style="font-style:normal;font-variant:normal;font-weight:normal;font-stretch:normal;font-family:Georgia;-inkscape-font-specification:Georgia;stroke-width:0.52524436"
           d="m 74.420367,147.54985 q -0.129259,0.0123 -0.280062,0.10772 -0.147725,0.0954 -0.215432,0.28622 -0.15388,0.45241 -0.292373,0.85865 -0.135414,0.40317 -0.304682,0.90789 -0.0554,0.16004 -0.113872,0.34469 -0.0554,0.18466 -0.101561,0.35393 h -0.264674 l -0.815565,-2.23434 -0.82172,2.23434 h -0.252363 q -0.230821,-0.68323 -0.452408,-1.35415 -0.21851,-0.67399 -0.387778,-1.17256 -0.04924,-0.14465 -0.187734,-0.22775 -0.138492,-0.0831 -0.267752,-0.0985 v -0.20312 h 1.354146 v 0.21543 q -0.101561,0.003 -0.221588,0.0339 -0.116948,0.0308 -0.116948,0.10156 0,0.0123 0.0092,0.0523 0.01231,0.04 0.0277,0.0862 0.09848,0.32315 0.221587,0.72323 0.126182,0.39701 0.323149,1.03408 l 0.775556,-2.1851 h 0.29545 l 0.790944,2.15432 q 0.132337,-0.4124 0.261597,-0.7971 0.132337,-0.38777 0.23082,-0.72631 0.02154,-0.08 0.04001,-0.14465 0.02154,-0.0677 0.02154,-0.13234 0,-0.0554 -0.04924,-0.0985 -0.04924,-0.0431 -0.120026,-0.0708 -0.06155,-0.0246 -0.135415,-0.0369 -0.07079,-0.0123 -0.104638,-0.0123 v -0.19696 h 1.154101 z"
           inkscape:connector-curvature="0" />
        <path
           id="path1145"
           style="font-style:normal;font-variant:normal;font-weight:normal;font-stretch:normal;font-family:Georgia;-inkscape-font-specification:Georgia;stroke-width:0.52524436"
           d="m 76.876295,147.74374 q 0,0.15696 -0.07694,0.28007 -0.07694,0.12002 -0.236975,0.12002 -0.172346,0 -0.264674,-0.0893 -0.08925,-0.0892 -0.08925,-0.19697 0,-0.0677 0.0092,-0.1231 0.01231,-0.0554 0.02154,-0.11079 -0.144647,0 -0.338536,0.11695 -0.193889,0.11694 -0.329304,0.33238 v 1.76654 q 0,0.10772 0.04001,0.17543 0.04309,0.0677 0.132337,0.10156 0.07694,0.0308 0.196967,0.0462 0.123104,0.0154 0.212354,0.0215 v 0.20313 H 74.55267 v -0.20313 q 0.07079,-0.006 0.144648,-0.0123 0.07694,-0.006 0.132337,-0.0246 0.08617,-0.0277 0.126181,-0.0954 0.04309,-0.0708 0.04309,-0.18158 v -1.87426 q 0,-0.0954 -0.04616,-0.18774 -0.04309,-0.0923 -0.123104,-0.14772 -0.05848,-0.0369 -0.138493,-0.0523 -0.08002,-0.0185 -0.172345,-0.0246 v -0.20005 l 1.009454,-0.0677 0.04309,0.0431 v 0.42779 h 0.01539 q 0.190812,-0.24929 0.42471,-0.37855 0.233897,-0.12925 0.427786,-0.12925 0.19389,0 0.313916,0.12618 0.123104,0.12618 0.123104,0.33853 z"
           inkscape:connector-curvature="0" />
        <path
           id="path1147"
           style="font-style:normal;font-variant:normal;font-weight:normal;font-stretch:normal;font-family:Georgia;-inkscape-font-specification:Georgia;stroke-width:0.52524436"
           d="m 79.833872,149.6734 q -0.190811,0.36316 -0.510882,0.57859 -0.320071,0.21543 -0.735547,0.21543 -0.366235,0 -0.64322,-0.12926 -0.273906,-0.12926 -0.452407,-0.35084 -0.178501,-0.22159 -0.267752,-0.51704 -0.08617,-0.29545 -0.08617,-0.62475 0,-0.29545 0.09233,-0.57859 0.09541,-0.28622 0.276985,-0.51396 0.175423,-0.21851 0.433942,-0.35085 0.261596,-0.13542 0.584745,-0.13542 0.332381,0 0.569356,0.10464 0.236976,0.10464 0.384701,0.28622 0.14157,0.17235 0.209277,0.40624 0.07079,0.2339 0.07079,0.50781 v 0.20312 h -2.009676 q 0,0.29853 0.0554,0.54166 0.05848,0.24313 0.181579,0.42779 0.120026,0.1785 0.313915,0.28314 0.19389,0.10156 0.461641,0.10156 0.273907,0 0.470874,-0.12619 0.200044,-0.12925 0.3847,-0.46164 z m -0.68015,-1.15718 q 0,-0.17234 -0.03078,-0.36931 -0.0277,-0.19697 -0.09233,-0.3293 -0.07079,-0.14157 -0.193889,-0.23082 -0.123105,-0.0893 -0.316994,-0.0893 -0.323148,0 -0.53858,0.27082 -0.212355,0.26776 -0.230821,0.74786 z"
           inkscape:connector-curvature="0" />
        <path
           id="path1149"
           style="font-style:normal;font-variant:normal;font-weight:normal;font-stretch:normal;font-family:Georgia;-inkscape-font-specification:Georgia;stroke-width:0.52524436"
           d="m 83.542386,150.38741 h -1.486483 v -0.20313 q 0.07079,-0.006 0.153881,-0.0123 0.08617,-0.006 0.141569,-0.0246 0.08617,-0.0277 0.126182,-0.0954 0.04309,-0.0708 0.04309,-0.18158 v -1.56035 q 0,-0.32315 -0.153881,-0.49857 -0.150802,-0.17542 -0.369312,-0.17542 -0.163113,0 -0.298528,0.0523 -0.135414,0.0492 -0.240053,0.1231 -0.101561,0.0708 -0.163113,0.15388 -0.05847,0.08 -0.08617,0.12926 v 1.745 q 0,0.10464 0.04309,0.17235 0.04309,0.0677 0.129259,0.10464 0.06463,0.0308 0.138492,0.0462 0.07694,0.0154 0.156958,0.0215 v 0.20313 h -1.486483 v -0.20313 q 0.07079,-0.006 0.144648,-0.0123 0.07694,-0.006 0.132337,-0.0246 0.08617,-0.0277 0.126182,-0.0954 0.04309,-0.0708 0.04309,-0.18158 v -1.87426 q 0,-0.10464 -0.04616,-0.19081 -0.04309,-0.0892 -0.123104,-0.14465 -0.05848,-0.0369 -0.138492,-0.0523 -0.08002,-0.0185 -0.172346,-0.0246 v -0.20005 l 1.009454,-0.0677 0.04309,0.0431 v 0.42779 h 0.01539 q 0.07386,-0.0739 0.184657,-0.17542 0.110793,-0.10464 0.209277,-0.16927 0.113871,-0.0739 0.270829,-0.12311 0.156958,-0.0492 0.353924,-0.0492 0.43702,0 0.646297,0.27391 0.212355,0.27083 0.212355,0.72324 v 1.57881 q 0,0.10771 0.03693,0.17542 0.03693,0.0646 0.126182,0.10156 0.07386,0.0308 0.126182,0.0431 0.0554,0.0123 0.150802,0.0185 z"
           inkscape:connector-curvature="0" />
        <path
           id="path1151"
           style="font-style:normal;font-variant:normal;font-weight:normal;font-stretch:normal;font-family:Georgia;-inkscape-font-specification:Georgia;stroke-width:0.52524436"
           d="m 85.324318,150.46742 q -0.658608,0 -1.030998,-0.43702 -0.37239,-0.43702 -0.37239,-1.17256 0,-0.32007 0.09848,-0.59706 0.10156,-0.28006 0.292372,-0.5078 0.181579,-0.21851 0.455485,-0.35085 0.273907,-0.13542 0.597056,-0.13542 0.446252,0 0.726314,0.21544 0.280062,0.21235 0.280062,0.58166 0,0.15388 -0.07386,0.27391 -0.07386,0.11695 -0.243131,0.11695 -0.181579,0 -0.28314,-0.0923 -0.09848,-0.0923 -0.09848,-0.2062 0,-0.13849 0.03693,-0.28314 0.03693,-0.14772 0.04309,-0.21543 -0.0554,-0.0954 -0.166191,-0.12618 -0.107716,-0.0339 -0.233898,-0.0339 -0.147725,0 -0.283139,0.0646 -0.132337,0.0616 -0.258519,0.23083 -0.113872,0.15388 -0.184656,0.41547 -0.07079,0.2616 -0.07079,0.62476 0,0.57243 0.252363,0.93559 0.255441,0.36008 0.66784,0.36008 0.298528,0 0.498572,-0.14465 0.203122,-0.14465 0.375468,-0.43394 l 0.196967,0.12926 q -0.203122,0.36315 -0.535504,0.57551 -0.332381,0.21235 -0.686305,0.21235 z"
           inkscape:connector-curvature="0" />
        <path
           id="path1153"
           style="font-style:normal;font-variant:normal;font-weight:normal;font-stretch:normal;font-family:Georgia;-inkscape-font-specification:Georgia;stroke-width:0.52524436"
           d="m 89.48524,149.6734 q -0.190812,0.36316 -0.510883,0.57859 -0.320071,0.21543 -0.735547,0.21543 -0.366235,0 -0.643219,-0.12926 -0.273907,-0.12926 -0.452408,-0.35084 -0.178501,-0.22159 -0.267752,-0.51704 -0.08617,-0.29545 -0.08617,-0.62475 0,-0.29545 0.09233,-0.57859 0.09541,-0.28622 0.276985,-0.51396 0.175423,-0.21851 0.433942,-0.35085 0.261596,-0.13542 0.584745,-0.13542 0.332381,0 0.569357,0.10464 0.236975,0.10464 0.3847,0.28622 0.14157,0.17235 0.209277,0.40624 0.07079,0.2339 0.07079,0.50781 v 0.20312 h -2.009675 q 0,0.29853 0.0554,0.54166 0.05848,0.24313 0.181579,0.42779 0.120027,0.1785 0.313916,0.28314 0.193889,0.10156 0.46164,0.10156 0.273907,0 0.470874,-0.12619 0.200044,-0.12925 0.3847,-0.46164 z m -0.680151,-1.15718 q 0,-0.17234 -0.03078,-0.36931 -0.0277,-0.19697 -0.09233,-0.3293 -0.07079,-0.14157 -0.193889,-0.23082 -0.123104,-0.0893 -0.316993,-0.0893 -0.323149,0 -0.538581,0.27082 -0.212355,0.26776 -0.23082,0.74786 z"
           inkscape:connector-curvature="0" />
        <path
           id="path1155"
           style="font-style:normal;font-variant:normal;font-weight:normal;font-stretch:normal;font-family:Georgia;-inkscape-font-specification:Georgia;stroke-width:0.52524436"
           d="m 95.929743,146.2388 q -0.08617,0.003 -0.264674,0.0492 -0.178501,0.0462 -0.255441,0.0954 -0.110794,0.0769 -0.150803,0.29545 -0.03693,0.21851 -0.03693,0.55397 v 3.19763 h -0.267751 l -2.64674,-3.5731 v 2.25281 q 0,0.37854 0.04616,0.58167 0.04924,0.20312 0.147725,0.28929 0.07078,0.0677 0.292372,0.12618 0.221588,0.0585 0.292373,0.0616 v 0.21851 h -1.791166 v -0.21851 q 0.0831,-0.006 0.280062,-0.0585 0.196967,-0.0554 0.246209,-0.0985 0.107716,-0.0862 0.147725,-0.2616 0.04001,-0.1785 0.04001,-0.60629 v -2.15124 q 0,-0.14157 -0.04924,-0.28314 -0.04924,-0.14157 -0.132337,-0.21851 -0.110794,-0.10156 -0.301605,-0.17235 -0.187734,-0.0739 -0.304683,-0.08 v -0.21851 h 1.246429 l 2.455928,3.32996 v -2.07738 q 0,-0.38162 -0.04924,-0.58474 -0.04924,-0.2062 -0.14157,-0.27391 -0.08617,-0.0585 -0.28314,-0.11387 -0.193889,-0.0554 -0.29545,-0.0616 v -0.21851 h 1.775778 z"
           inkscape:connector-curvature="0" />
        <path
           id="path1157"
           style="font-style:normal;font-variant:normal;font-weight:normal;font-stretch:normal;font-family:Georgia;-inkscape-font-specification:Georgia;stroke-width:0.52524436"
           d="m 98.902707,149.6734 q -0.190812,0.36316 -0.510883,0.57859 -0.32007,0.21543 -0.735547,0.21543 -0.366235,0 -0.643219,-0.12926 -0.273907,-0.12926 -0.452408,-0.35084 -0.178501,-0.22159 -0.267752,-0.51704 -0.08617,-0.29545 -0.08617,-0.62475 0,-0.29545 0.09233,-0.57859 0.0954,-0.28622 0.276984,-0.51396 0.175423,-0.21851 0.433942,-0.35085 0.261596,-0.13542 0.584745,-0.13542 0.332381,0 0.569357,0.10464 0.236975,0.10464 0.3847,0.28622 0.14157,0.17235 0.209277,0.40624 0.07079,0.2339 0.07079,0.50781 v 0.20312 h -2.009675 q 0,0.29853 0.0554,0.54166 0.05847,0.24313 0.181578,0.42779 0.120027,0.1785 0.313916,0.28314 0.193889,0.10156 0.46164,0.10156 0.273907,0 0.470874,-0.12619 0.200044,-0.12925 0.3847,-0.46164 z m -0.680151,-1.15718 q 0,-0.17234 -0.03078,-0.36931 -0.0277,-0.19697 -0.09233,-0.3293 -0.07079,-0.14157 -0.193889,-0.23082 -0.123104,-0.0893 -0.316993,-0.0893 -0.323149,0 -0.538581,0.27082 -0.212355,0.26776 -0.23082,0.74786 z"
           inkscape:connector-curvature="0" />
        <path
           id="path1159"
           style="font-style:normal;font-variant:normal;font-weight:normal;font-stretch:normal;font-family:Georgia;-inkscape-font-specification:Georgia;stroke-width:0.52524436"
           d="m 101.13397,150.25507 q -0.20004,0.0831 -0.37854,0.13849 -0.1785,0.0585 -0.43702,0.0585 -0.381626,0 -0.538583,-0.19082 -0.153881,-0.19389 -0.153881,-0.54473 v -2.05584 h -0.547813 v -0.29545 h 0.560124 v -0.94483 h 0.560123 v 0.94483 h 0.87096 v 0.29545 h -0.8648 v 1.69576 q 0,0.19081 0.0123,0.32007 0.0154,0.12618 0.0677,0.22159 0.0493,0.0893 0.14773,0.13541 0.0985,0.0462 0.26467,0.0462 0.0769,0 0.22467,-0.0123 0.1508,-0.0154 0.21235,-0.0369 z"
           inkscape:connector-curvature="0" />
        <path
           id="path1161"
           style="font-style:normal;font-variant:normal;font-weight:normal;font-stretch:normal;font-family:Georgia;-inkscape-font-specification:Georgia;stroke-width:0.52524436"
           d="m 105.95966,147.54985 q -0.12926,0.0123 -0.28007,0.10772 -0.14772,0.0954 -0.21543,0.28622 -0.15388,0.45241 -0.29237,0.85865 -0.13542,0.40317 -0.30468,0.90789 -0.0554,0.16004 -0.11388,0.34469 -0.0554,0.18466 -0.10156,0.35393 H 104.387 l -0.81557,-2.23434 -0.82172,2.23434 h -0.25236 q -0.23082,-0.68323 -0.45241,-1.35415 -0.21851,-0.67399 -0.38777,-1.17256 -0.0493,-0.14465 -0.18774,-0.22775 -0.13849,-0.0831 -0.26775,-0.0985 v -0.20312 h 1.35415 v 0.21543 q -0.10157,0.003 -0.22159,0.0339 -0.11695,0.0308 -0.11695,0.10156 0,0.0123 0.009,0.0523 0.0123,0.04 0.0277,0.0862 0.0985,0.32315 0.22159,0.72323 0.12618,0.39701 0.32315,1.03408 l 0.77555,-2.1851 h 0.29545 l 0.79095,2.15432 q 0.13233,-0.4124 0.26159,-0.7971 0.13234,-0.38777 0.23082,-0.72631 0.0216,-0.08 0.04,-0.14465 0.0215,-0.0677 0.0215,-0.13234 0,-0.0554 -0.0493,-0.0985 -0.0492,-0.0431 -0.12002,-0.0708 -0.0615,-0.0246 -0.13542,-0.0369 -0.0708,-0.0123 -0.10464,-0.0123 v -0.19696 h 1.15411 z"
           inkscape:connector-curvature="0" />
        <path
           id="path1163"
           style="font-style:normal;font-variant:normal;font-weight:normal;font-stretch:normal;font-family:Georgia;-inkscape-font-specification:Georgia;stroke-width:0.52524436"
           d="m 109.04957,148.83937 q 0,0.32007 -0.10156,0.63091 -0.10156,0.30776 -0.2893,0.52319 -0.21235,0.24621 -0.49241,0.36624 -0.28007,0.12002 -0.62784,0.12002 -0.28929,0 -0.55089,-0.10771 -0.26159,-0.1108 -0.46471,-0.32007 -0.20005,-0.2062 -0.32008,-0.50165 -0.11694,-0.29853 -0.11694,-0.66784 0,-0.71093 0.41239,-1.16334 0.41548,-0.45241 1.0864,-0.45241 0.63706,0 1.04946,0.43087 0.41548,0.42779 0.41548,1.14179 z m -0.63707,0.006 q 0,-0.23082 -0.0462,-0.48627 -0.0462,-0.25851 -0.13849,-0.43702 -0.0985,-0.19081 -0.25852,-0.30468 -0.16004,-0.11695 -0.39086,-0.11695 -0.23697,0 -0.40624,0.11695 -0.16619,0.11695 -0.27083,0.32007 -0.0985,0.18774 -0.13849,0.42779 -0.04,0.24005 -0.04,0.46472 0,0.29545 0.0462,0.54781 0.0493,0.24929 0.15388,0.44625 0.10464,0.19697 0.2616,0.31084 0.16004,0.1108 0.39393,0.1108 0.3847,0 0.60937,-0.37239 0.22466,-0.37239 0.22466,-1.02792 z"
           inkscape:connector-curvature="0" />
        <path
           id="path1165"
           style="font-style:normal;font-variant:normal;font-weight:normal;font-stretch:normal;font-family:Georgia;-inkscape-font-specification:Georgia;stroke-width:0.52524436"
           d="m 111.81326,147.74374 q 0,0.15696 -0.0769,0.28007 -0.0769,0.12002 -0.23698,0.12002 -0.17235,0 -0.26467,-0.0893 -0.0892,-0.0892 -0.0892,-0.19697 0,-0.0677 0.009,-0.1231 0.0123,-0.0554 0.0215,-0.11079 -0.14464,0 -0.33853,0.11695 -0.19389,0.11694 -0.32931,0.33238 v 1.76654 q 0,0.10772 0.04,0.17543 0.0431,0.0677 0.13234,0.10156 0.0769,0.0308 0.19696,0.0462 0.12311,0.0154 0.21236,0.0215 v 0.20313 h -1.60035 v -0.20313 q 0.0708,-0.006 0.14464,-0.0123 0.0769,-0.006 0.13234,-0.0246 0.0862,-0.0277 0.12618,-0.0954 0.0431,-0.0708 0.0431,-0.18158 v -1.87426 q 0,-0.0954 -0.0462,-0.18774 -0.0431,-0.0923 -0.1231,-0.14772 -0.0585,-0.0369 -0.13849,-0.0523 -0.08,-0.0185 -0.17235,-0.0246 v -0.20005 l 1.00946,-0.0677 0.0431,0.0431 v 0.42779 h 0.0154 q 0.19081,-0.24929 0.42471,-0.37855 0.2339,-0.12925 0.42779,-0.12925 0.19389,0 0.31391,0.12618 0.12311,0.12618 0.12311,0.33853 z"
           inkscape:connector-curvature="0" />
        <path
           id="path1167"
           style="font-style:normal;font-variant:normal;font-weight:normal;font-stretch:normal;font-family:Georgia;-inkscape-font-specification:Georgia;stroke-width:0.52524436"
           d="m 115.29095,150.38741 h -0.91712 q -0.24006,-0.34777 -0.51396,-0.74478 -0.27391,-0.39702 -0.56936,-0.77248 l -0.25236,0.23697 v 0.72016 q 0,0.1108 0.04,0.18466 0.04,0.0708 0.12926,0.10464 0.0739,0.0308 0.14157,0.0462 0.0677,0.0154 0.15696,0.0215 v 0.20313 h -1.48956 v -0.20313 q 0.0708,-0.006 0.14773,-0.0123 0.0769,-0.009 0.12926,-0.0246 0.0862,-0.0277 0.12925,-0.0954 0.0431,-0.0708 0.0431,-0.18158 v -3.52694 q 0,-0.11387 -0.0492,-0.21235 -0.0462,-0.10156 -0.1231,-0.15388 -0.0646,-0.0492 -0.20313,-0.0646 -0.13541,-0.0154 -0.21851,-0.0215 v -0.19697 l 1.12333,-0.0708 0.0431,0.0462 v 3.20994 q 0.24005,-0.24005 0.51703,-0.51396 0.28006,-0.27698 0.47088,-0.49242 0.0246,-0.0277 0.0523,-0.0708 0.0308,-0.0462 0.0308,-0.0739 0,-0.0831 -0.13541,-0.12311 -0.13234,-0.04 -0.25544,-0.0554 v -0.19696 h 1.33568 v 0.19081 q -0.25852,0.0769 -0.45857,0.19389 -0.19696,0.11387 -0.3016,0.2062 -0.0739,0.0615 -0.20928,0.20004 -0.13541,0.13849 -0.37854,0.36316 0.25236,0.31084 0.56627,0.74478 0.317,0.43394 0.46165,0.62783 0.13541,0.18158 0.24313,0.23698 0.10771,0.0554 0.31391,0.0677 z"
           inkscape:connector-curvature="0" />
        <path
           id="path1169"
           style="font-style:normal;font-variant:normal;font-weight:normal;font-stretch:normal;font-family:Georgia;-inkscape-font-specification:Georgia;stroke-width:0.52524436"
           d="m 119.77194,148.38389 q 0.13849,0.15388 0.20312,0.33853 0.0677,0.18158 0.0677,0.42471 0,0.57859 -0.42779,0.95406 -0.42778,0.37547 -1.06177,0.37547 -0.29237,0 -0.58474,-0.0893 -0.29238,-0.0923 -0.50473,-0.22159 l -0.13234,0.22466 h -0.24621 l -0.0431,-1.49571 h 0.24928 q 0.0769,0.27698 0.1785,0.50165 0.10464,0.22158 0.27391,0.41547 0.16004,0.18158 0.37239,0.2893 0.21543,0.10771 0.49857,0.10771 0.21236,0 0.36931,-0.0554 0.16004,-0.0554 0.25852,-0.15696 0.0985,-0.10156 0.14465,-0.23698 0.0492,-0.13849 0.0492,-0.31699 0,-0.2616 -0.14772,-0.48626 -0.14773,-0.22774 -0.4401,-0.34469 -0.20004,-0.08 -0.45856,-0.17543 -0.25852,-0.0985 -0.44626,-0.18465 -0.36931,-0.16619 -0.57551,-0.43394 -0.20312,-0.27083 -0.20312,-0.70478 0,-0.24928 0.10156,-0.46471 0.10156,-0.21544 0.2893,-0.3847 0.1785,-0.16004 0.42163,-0.24929 0.24313,-0.0923 0.5078,-0.0923 0.30161,0 0.53858,0.0923 0.24006,0.0923 0.43702,0.21543 l 0.12618,-0.20927 h 0.24621 l 0.0246,1.44955 h -0.24928 q -0.0677,-0.24929 -0.15388,-0.47703 -0.0831,-0.22774 -0.21851,-0.4124 -0.13234,-0.1785 -0.32315,-0.28314 -0.19081,-0.10772 -0.4678,-0.10772 -0.29237,0 -0.49857,0.18774 -0.2062,0.18773 -0.2062,0.45856 0,0.28314 0.13234,0.47087 0.13234,0.18466 0.3847,0.30469 0.22466,0.10771 0.4401,0.18773 0.21851,0.0769 0.42163,0.16619 0.18466,0.08 0.35392,0.18158 0.17235,0.10156 0.29853,0.23698 z"
           inkscape:connector-curvature="0" />
        <path
           id="path1171"
           style="font-style:normal;font-variant:normal;font-weight:normal;font-stretch:normal;font-family:Georgia;-inkscape-font-specification:Georgia;stroke-width:0.52524436"
           d="m 123.20347,149.6734 q -0.19081,0.36316 -0.51088,0.57859 -0.32007,0.21543 -0.73555,0.21543 -0.36624,0 -0.64322,-0.12926 -0.27391,-0.12926 -0.45241,-0.35084 -0.1785,-0.22159 -0.26775,-0.51704 -0.0862,-0.29545 -0.0862,-0.62475 0,-0.29545 0.0923,-0.57859 0.0954,-0.28622 0.27698,-0.51396 0.17542,-0.21851 0.43394,-0.35085 0.2616,-0.13542 0.58475,-0.13542 0.33238,0 0.56935,0.10464 0.23698,0.10464 0.3847,0.28622 0.14157,0.17235 0.20928,0.40624 0.0708,0.2339 0.0708,0.50781 v 0.20312 h -2.00968 q 0,0.29853 0.0554,0.54166 0.0585,0.24313 0.18158,0.42779 0.12002,0.1785 0.31391,0.28314 0.19389,0.10156 0.46164,0.10156 0.27391,0 0.47088,-0.12619 0.20004,-0.12925 0.3847,-0.46164 z m -0.68015,-1.15718 q 0,-0.17234 -0.0308,-0.36931 -0.0277,-0.19697 -0.0923,-0.3293 -0.0708,-0.14157 -0.19388,-0.23082 -0.12311,-0.0893 -0.317,-0.0893 -0.32315,0 -0.53858,0.27082 -0.21235,0.26776 -0.23082,0.74786 z"
           inkscape:connector-curvature="0" />
        <path
           id="path1173"
           style="font-style:normal;font-variant:normal;font-weight:normal;font-stretch:normal;font-family:Georgia;-inkscape-font-specification:Georgia;stroke-width:0.52524436"
           d="m 125.88406,147.74374 q 0,0.15696 -0.0769,0.28007 -0.0769,0.12002 -0.23697,0.12002 -0.17235,0 -0.26467,-0.0893 -0.0893,-0.0892 -0.0893,-0.19697 0,-0.0677 0.009,-0.1231 0.0123,-0.0554 0.0215,-0.11079 -0.14465,0 -0.33854,0.11695 -0.19388,0.11694 -0.3293,0.33238 v 1.76654 q 0,0.10772 0.04,0.17543 0.0431,0.0677 0.13234,0.10156 0.0769,0.0308 0.19696,0.0462 0.12311,0.0154 0.21236,0.0215 v 0.20313 h -1.60036 v -0.20313 q 0.0708,-0.006 0.14465,-0.0123 0.0769,-0.006 0.13234,-0.0246 0.0862,-0.0277 0.12618,-0.0954 0.0431,-0.0708 0.0431,-0.18158 v -1.87426 q 0,-0.0954 -0.0462,-0.18774 -0.0431,-0.0923 -0.1231,-0.14772 -0.0585,-0.0369 -0.13849,-0.0523 -0.08,-0.0185 -0.17235,-0.0246 v -0.20005 l 1.00945,-0.0677 0.0431,0.0431 v 0.42779 h 0.0154 q 0.19081,-0.24929 0.42471,-0.37855 0.2339,-0.12925 0.42779,-0.12925 0.19388,0 0.31391,0.12618 0.1231,0.12618 0.1231,0.33853 z"
           inkscape:connector-curvature="0" />
        <path
           id="path1175"
           style="font-style:normal;font-variant:normal;font-weight:normal;font-stretch:normal;font-family:Georgia;-inkscape-font-specification:Georgia;stroke-width:0.52524436"
           d="m 129.14325,147.54062 q -0.1385,0.0246 -0.26468,0.10156 -0.1231,0.0739 -0.21235,0.26468 -0.18158,0.4124 -0.37547,0.86173 -0.19389,0.44625 -0.40317,0.93866 -0.0615,0.14157 -0.13233,0.33546 -0.0677,0.19389 -0.12619,0.37239 h -0.24005 q -0.29237,-0.72323 -0.53858,-1.31721 -0.24621,-0.59706 -0.51088,-1.22181 -0.0615,-0.14157 -0.20005,-0.21851 -0.13541,-0.08 -0.2739,-0.10156 v -0.20312 h 1.40339 v 0.21543 q -0.0923,0.003 -0.23083,0.04 -0.13849,0.0339 -0.13849,0.0954 0,0.009 0.0154,0.0493 0.0154,0.0369 0.0308,0.0862 0.12618,0.31391 0.357,0.87712 0.23082,0.5632 0.37547,0.90789 0.11079,-0.26467 0.27698,-0.65861 0.16927,-0.39393 0.36316,-0.88019 0.0308,-0.0831 0.0585,-0.15388 0.0277,-0.0739 0.0277,-0.14773 0,-0.0523 -0.0523,-0.0923 -0.0492,-0.0431 -0.12002,-0.0739 -0.0708,-0.0308 -0.1385,-0.0462 -0.0677,-0.0154 -0.11079,-0.0216 v -0.19696 h 1.16026 z"
           inkscape:connector-curvature="0" />
        <path
           id="path1177"
           style="font-style:normal;font-variant:normal;font-weight:normal;font-stretch:normal;font-family:Georgia;-inkscape-font-specification:Georgia;stroke-width:0.52524436"
           d="m 130.74667,150.38741 h -1.46801 v -0.20313 q 0.0708,-0.006 0.14464,-0.0123 0.0769,-0.006 0.13234,-0.0246 0.0862,-0.0277 0.12618,-0.0954 0.0431,-0.0708 0.0431,-0.18158 v -1.87426 q 0,-0.0985 -0.0462,-0.1785 -0.0431,-0.0831 -0.12311,-0.1385 -0.0585,-0.0369 -0.16927,-0.0616 -0.11079,-0.0277 -0.20312,-0.0339 v -0.20005 l 1.07101,-0.0677 0.0431,0.0431 v 2.4744 q 0,0.10771 0.04,0.1785 0.0431,0.0708 0.13234,0.10464 0.0677,0.0277 0.13234,0.0462 0.0646,0.0154 0.14464,0.0215 z m -0.38777,-4.26864 q 0,0.17542 -0.11695,0.30776 -0.11387,0.12926 -0.28314,0.12926 -0.15696,0 -0.27391,-0.12311 -0.11387,-0.12618 -0.11387,-0.28621 0,-0.16927 0.11387,-0.29545 0.11695,-0.12618 0.27391,-0.12618 0.17542,0 0.28622,0.12002 0.11387,0.11695 0.11387,0.27391 z"
           inkscape:connector-curvature="0" />
        <path
           id="path1179"
           style="font-style:normal;font-variant:normal;font-weight:normal;font-stretch:normal;font-family:Georgia;-inkscape-font-specification:Georgia;stroke-width:0.52524436"
           d="m 132.52245,150.46742 q -0.6586,0 -1.03099,-0.43702 -0.37239,-0.43702 -0.37239,-1.17256 0,-0.32007 0.0985,-0.59706 0.10156,-0.28006 0.29237,-0.5078 0.18158,-0.21851 0.45549,-0.35085 0.27391,-0.13542 0.59705,-0.13542 0.44626,0 0.72632,0.21544 0.28006,0.21235 0.28006,0.58166 0,0.15388 -0.0739,0.27391 -0.0739,0.11695 -0.24313,0.11695 -0.18158,0 -0.28314,-0.0923 -0.0985,-0.0923 -0.0985,-0.2062 0,-0.13849 0.0369,-0.28314 0.0369,-0.14772 0.0431,-0.21543 -0.0554,-0.0954 -0.16619,-0.12618 -0.10771,-0.0339 -0.2339,-0.0339 -0.14772,0 -0.28314,0.0646 -0.13233,0.0616 -0.25851,0.23083 -0.11388,0.15388 -0.18466,0.41547 -0.0708,0.2616 -0.0708,0.62476 0,0.57243 0.25237,0.93559 0.25544,0.36008 0.66784,0.36008 0.29853,0 0.49857,-0.14465 0.20312,-0.14465 0.37547,-0.43394 l 0.19696,0.12926 q -0.20312,0.36315 -0.5355,0.57551 -0.33238,0.21235 -0.68631,0.21235 z"
           inkscape:connector-curvature="0" />
        <path
           id="path1181"
           style="font-style:normal;font-variant:normal;font-weight:normal;font-stretch:normal;font-family:Georgia;-inkscape-font-specification:Georgia;stroke-width:0.52524436"
           d="m 136.68337,149.6734 q -0.19081,0.36316 -0.51088,0.57859 -0.32007,0.21543 -0.73555,0.21543 -0.36623,0 -0.64322,-0.12926 -0.2739,-0.12926 -0.4524,-0.35084 -0.1785,-0.22159 -0.26776,-0.51704 -0.0862,-0.29545 -0.0862,-0.62475 0,-0.29545 0.0923,-0.57859 0.0954,-0.28622 0.27698,-0.51396 0.17543,-0.21851 0.43395,-0.35085 0.26159,-0.13542 0.58474,-0.13542 0.33238,0 0.56936,0.10464 0.23697,0.10464 0.3847,0.28622 0.14157,0.17235 0.20928,0.40624 0.0708,0.2339 0.0708,0.50781 v 0.20312 h -2.00967 q 0,0.29853 0.0554,0.54166 0.0585,0.24313 0.18158,0.42779 0.12003,0.1785 0.31392,0.28314 0.19389,0.10156 0.46164,0.10156 0.2739,0 0.47087,-0.12619 0.20004,-0.12925 0.3847,-0.46164 z m -0.68015,-1.15718 q 0,-0.17234 -0.0308,-0.36931 -0.0277,-0.19697 -0.0923,-0.3293 -0.0708,-0.14157 -0.19389,-0.23082 -0.1231,-0.0893 -0.31699,-0.0893 -0.32315,0 -0.53858,0.27082 -0.21236,0.26776 -0.23082,0.74786 z"
           inkscape:connector-curvature="0" />
        <path
           id="path1183"
           style="font-style:normal;font-variant:normal;font-weight:normal;font-stretch:normal;font-family:Georgia;-inkscape-font-specification:Georgia;stroke-width:0.52524436"
           d="m 139.0439,148.90092 q 0.12618,0.1108 0.19389,0.25544 0.0677,0.14465 0.0677,0.35393 0,0.42163 -0.31699,0.68938 -0.31391,0.26775 -0.81556,0.26775 -0.26468,0 -0.48934,-0.0954 -0.22159,-0.0954 -0.317,-0.17543 l -0.0616,0.20005 h -0.23082 l -0.0308,-1.05562 h 0.21235 q 0.0246,0.12003 0.10464,0.28006 0.08,0.16004 0.19389,0.2893 0.12002,0.13541 0.28622,0.22774 0.16926,0.0923 0.37854,0.0923 0.29545,0 0.45549,-0.13234 0.16003,-0.13541 0.16003,-0.3847 0,-0.12926 -0.0523,-0.22159 -0.0492,-0.0954 -0.14772,-0.16619 -0.10156,-0.0708 -0.24929,-0.12618 -0.14772,-0.0585 -0.3293,-0.11387 -0.14465,-0.0431 -0.32315,-0.11695 -0.17542,-0.0769 -0.30161,-0.1785 -0.13541,-0.10772 -0.22158,-0.26468 -0.0862,-0.15695 -0.0862,-0.36931 0,-0.37239 0.27699,-0.63091 0.27698,-0.25852 0.7417,-0.25852 0.1785,0 0.36316,0.0462 0.18773,0.0462 0.30468,0.11079 l 0.0708,-0.16003 h 0.22158 l 0.0462,0.9756 h -0.21236 q -0.0646,-0.32623 -0.28006,-0.52935 -0.21235,-0.2062 -0.52012,-0.2062 -0.25236,0 -0.39701,0.12618 -0.14464,0.12618 -0.14464,0.30468 0,0.1385 0.0462,0.23083 0.0492,0.0923 0.14465,0.15695 0.0923,0.0616 0.23082,0.11695 0.14157,0.0523 0.34777,0.12003 0.20312,0.0646 0.38162,0.1508 0.18158,0.0862 0.29853,0.19081 z"
           inkscape:connector-curvature="0" />
        <path
           id="path1185"
           style="font-style:normal;font-variant:normal;font-weight:normal;font-stretch:normal;font-family:Georgia;-inkscape-font-specification:Georgia;stroke-width:0.52524436"
           d="m 143.29099,150.48897 q -0.39085,0 -0.75093,-0.15388 -0.35701,-0.15388 -0.63399,-0.44318 -0.27391,-0.28929 -0.43702,-0.70477 -0.16311,-0.41855 -0.16311,-0.94175 0,-0.52319 0.16003,-0.9479 0.16004,-0.42779 0.44318,-0.73555 0.28006,-0.30468 0.66168,-0.47087 0.38162,-0.16619 0.81557,-0.16619 0.32315,0 0.58474,0.08 0.2616,0.08 0.49857,0.22466 l 0.12619,-0.20927 h 0.2462 l 0.0277,1.55726 h -0.25236 q -0.0492,-0.22774 -0.14773,-0.49241 -0.0985,-0.26776 -0.23082,-0.45241 -0.14772,-0.20928 -0.35084,-0.32623 -0.20313,-0.12002 -0.46472,-0.12002 -0.29853,0 -0.55705,0.13233 -0.25544,0.13234 -0.44317,0.39086 -0.1785,0.24928 -0.28006,0.63398 -0.10157,0.38471 -0.10157,0.85866 0,0.41855 0.10464,0.7694 0.10772,0.34777 0.30469,0.61244 0.19696,0.2616 0.46471,0.40932 0.27083,0.14773 0.60321,0.14773 0.24929,0 0.45857,-0.0769 0.20927,-0.08 0.36315,-0.20928 0.15388,-0.13541 0.27083,-0.30776 0.11695,-0.17235 0.19082,-0.37547 l 0.23082,0.1108 q -0.26468,0.64937 -0.7017,0.92943 -0.43702,0.27699 -1.04023,0.27699 z"
           inkscape:connector-curvature="0" />
        <path
           id="path1187"
           style="font-style:normal;font-variant:normal;font-weight:normal;font-stretch:normal;font-family:Georgia;-inkscape-font-specification:Georgia;stroke-width:0.52524436"
           d="m 148.29517,148.83937 q 0,0.32007 -0.10156,0.63091 -0.10156,0.30776 -0.28929,0.52319 -0.21236,0.24621 -0.49242,0.36624 -0.28006,0.12002 -0.62783,0.12002 -0.28929,0 -0.55089,-0.10771 -0.2616,-0.1108 -0.46472,-0.32007 -0.20004,-0.2062 -0.32007,-0.50165 -0.11695,-0.29853 -0.11695,-0.66784 0,-0.71093 0.4124,-1.16334 0.41548,-0.45241 1.08639,-0.45241 0.63707,0 1.04947,0.43087 0.41547,0.42779 0.41547,1.14179 z m -0.63706,0.006 q 0,-0.23082 -0.0462,-0.48627 -0.0462,-0.25851 -0.1385,-0.43702 -0.0985,-0.19081 -0.25852,-0.30468 -0.16003,-0.11695 -0.39085,-0.11695 -0.23698,0 -0.40624,0.11695 -0.1662,0.11695 -0.27083,0.32007 -0.0985,0.18774 -0.1385,0.42779 -0.04,0.24005 -0.04,0.46472 0,0.29545 0.0462,0.54781 0.0492,0.24929 0.15388,0.44625 0.10464,0.19697 0.2616,0.31084 0.16003,0.1108 0.39393,0.1108 0.3847,0 0.60936,-0.37239 0.22467,-0.37239 0.22467,-1.02792 z"
           inkscape:connector-curvature="0" />
        <path
           id="path1189"
           style="font-style:normal;font-variant:normal;font-weight:normal;font-stretch:normal;font-family:Georgia;-inkscape-font-specification:Georgia;stroke-width:0.52524436"
           d="m 151.05886,147.74374 q 0,0.15696 -0.0769,0.28007 -0.0769,0.12002 -0.23697,0.12002 -0.17235,0 -0.26468,-0.0893 -0.0892,-0.0892 -0.0892,-0.19697 0,-0.0677 0.009,-0.1231 0.0123,-0.0554 0.0215,-0.11079 -0.14465,0 -0.33854,0.11695 -0.19389,0.11694 -0.3293,0.33238 v 1.76654 q 0,0.10772 0.04,0.17543 0.0431,0.0677 0.13233,0.10156 0.0769,0.0308 0.19697,0.0462 0.1231,0.0154 0.21235,0.0215 v 0.20313 h -1.60035 v -0.20313 q 0.0708,-0.006 0.14465,-0.0123 0.0769,-0.006 0.13234,-0.0246 0.0862,-0.0277 0.12618,-0.0954 0.0431,-0.0708 0.0431,-0.18158 v -1.87426 q 0,-0.0954 -0.0462,-0.18774 -0.0431,-0.0923 -0.1231,-0.14772 -0.0585,-0.0369 -0.1385,-0.0523 -0.08,-0.0185 -0.17234,-0.0246 v -0.20005 l 1.00945,-0.0677 0.0431,0.0431 v 0.42779 h 0.0154 q 0.19081,-0.24929 0.42471,-0.37855 0.23389,-0.12925 0.42778,-0.12925 0.19389,0 0.31392,0.12618 0.1231,0.12618 0.1231,0.33853 z"
           inkscape:connector-curvature="0" />
        <path
           id="path1191"
           style="font-style:normal;font-variant:normal;font-weight:normal;font-stretch:normal;font-family:Georgia;-inkscape-font-specification:Georgia;stroke-width:0.52524436"
           d="m 154.09338,147.71297 q 0.18158,0.21543 0.28006,0.50165 0.10156,0.28314 0.10156,0.64937 0,0.36008 -0.12002,0.65861 -0.12003,0.29545 -0.31699,0.50473 -0.2062,0.21235 -0.45857,0.32622 -0.25236,0.11387 -0.5355,0.11387 -0.27391,0 -0.44933,-0.0616 -0.17542,-0.0615 -0.28622,-0.14465 h -0.0246 v 0.91097 q 0,0.1108 0.0431,0.18466 0.0431,0.0739 0.13233,0.10772 0.0739,0.0277 0.20928,0.0523 0.13849,0.0277 0.22774,0.0308 v 0.2062 h -1.69576 v -0.2062 q 0.0954,-0.006 0.18466,-0.0154 0.0893,-0.009 0.16004,-0.0308 0.0923,-0.0308 0.12926,-0.10772 0.0369,-0.0769 0.0369,-0.18158 v -3.2284 q 0,-0.0923 -0.0462,-0.1785 -0.0462,-0.0862 -0.12002,-0.1385 -0.0554,-0.0369 -0.15388,-0.0554 -0.0985,-0.0216 -0.19082,-0.0277 v -0.20005 l 1.03408,-0.0677 0.0431,0.0369 v 0.34161 l 0.0246,0.006 q 0.16003,-0.18466 0.39701,-0.30776 0.23697,-0.12311 0.47087,-0.12311 0.28314,0 0.51704,0.12003 0.23697,0.12003 0.40624,0.32315 z m -0.50165,2.18202 q 0.12311,-0.19081 0.18158,-0.44318 0.0585,-0.25236 0.0585,-0.5632 0,-0.22774 -0.0493,-0.46472 -0.0492,-0.23697 -0.15388,-0.41239 -0.10463,-0.17851 -0.2739,-0.2893 -0.16927,-0.11079 -0.40625,-0.11079 -0.22774,0 -0.38777,0.10156 -0.16004,0.0985 -0.27699,0.23697 v 1.79425 q 0.0277,0.0831 0.0892,0.17234 0.0646,0.0892 0.14157,0.15388 0.0954,0.0769 0.2062,0.12618 0.11079,0.0462 0.27083,0.0462 0.17235,0 0.33238,-0.0892 0.16004,-0.0923 0.26775,-0.25852 z"
           inkscape:connector-curvature="0" />
        <path
           id="path1193"
           style="font-style:normal;font-variant:normal;font-weight:normal;font-stretch:normal;font-family:Georgia;-inkscape-font-specification:Georgia;stroke-width:0.52524436"
           d="m 155.98303,150.03348 q 0,0.17235 -0.12618,0.29545 -0.12311,0.12003 -0.29545,0.12003 -0.17235,0 -0.29853,-0.12003 -0.12311,-0.1231 -0.12311,-0.29545 0,-0.17234 0.12311,-0.29545 0.12618,-0.12618 0.29853,-0.12618 0.17234,0 0.29545,0.12618 0.12618,0.12311 0.12618,0.29545 z"
           inkscape:connector-curvature="0" />
      </g>
      <path
         inkscape:connector-curvature="0"
         id="rect1016"
         d="m 79.795936,110.56545 v 1.94252 h 3.054594 v -1.94252 h -0.508498 v 1.09038 c 0,0.0879 -0.07073,0.15864 -0.158647,0.15864 h -0.351917 v 0.27802 c 0,0.0819 -0.06591,0.1478 -0.147793,0.1478 h -0.731737 c -0.08189,0 -0.147796,-0.0659 -0.147796,-0.1478 v -0.27802 h -0.341064 c -0.08792,0 -0.158647,-0.0707 -0.158647,-0.15864 v -1.09038 z"
         style="opacity:0.85;fill:#000000;fill-opacity:1;stroke:none;stroke-width:0.26499999;stroke-linecap:butt;stroke-linejoin:round;stroke-miterlimit:14.89999962;stroke-dasharray:none;stroke-dashoffset:0;stroke-opacity:1;paint-order:normal" />
      <path
         inkscape:connector-curvature="0"
         id="rect1018"
         d="m 79.699793,112.79374 c -0.08792,0 -0.158647,0.0707 -0.158647,0.15865 v 1.35185 c -3.33e-4,-6e-5 -6.98e-4,6e-5 -0.001,0 v 5.2e-4 c 0.0055,0.45037 0.03816,0.43974 0.270266,0.74052 0.108355,0.14041 0.220036,0.28967 0.248047,0.33177 0.07882,0.11853 0.114723,0.26833 0.114723,0.4811 0,0.0175 6.75e-4,0.0214 0.001,0.0331 -2.9e-5,0.001 -5.16e-4,0.002 -5.16e-4,0.003 v 0.10955 c 0,0.0654 0.0529,0.11834 0.11834,0.11834 h 2.060337 c 0.06544,0 0.11834,-0.0529 0.11834,-0.11834 v -0.10232 -0.007 c 4.18e-4,-0.0124 0.0016,-0.0171 0.0016,-0.0362 0,-0.21277 0.03589,-0.36257 0.114721,-0.4811 0.02801,-0.0421 0.139694,-0.19136 0.248046,-0.33177 0.230109,-0.29817 0.264327,-0.29014 0.27027,-0.72863 h 10e-4 v -1.36426 c 0,-0.0879 -0.07073,-0.15865 -0.158647,-0.15865 h -0.601512 v 0.96532 c 0,0.24212 -0.195067,0.43719 -0.437184,0.43718 h -1.166336 c -0.242118,0 -0.437182,-0.19506 -0.437182,-0.43718 v -0.96532 z"
         style="opacity:0.85;fill:#000000;fill-opacity:1;stroke:none;stroke-width:0.26499999;stroke-linecap:butt;stroke-linejoin:round;stroke-miterlimit:14.89999962;stroke-dasharray:none;stroke-dashoffset:0;stroke-opacity:1;paint-order:normal" />
      <path
         inkscape:connector-curvature="0"
         id="rect1026"
         d="m 80.557905,110.28795 v 1.2454 h 0.340031 c 0.09254,0 0.166916,0.0749 0.166916,0.16743 v 0.26356 h 0.510045 v -0.26356 c 0,-0.0925 0.07437,-0.16743 0.166915,-0.16743 h 0.346749 v -1.2454 z m 0.254248,0.2775 h 0.254765 v 0.69402 h -0.254765 z m 0.381889,0 h 0.254765 v 0.69402 h -0.254765 z m 0.381889,0 h 0.254765 v 0.69402 h -0.254765 z"
         style="opacity:0.85;fill:#000000;fill-opacity:1;stroke:none;stroke-width:0.26499999;stroke-linecap:butt;stroke-linejoin:round;stroke-miterlimit:14.89999962;stroke-dasharray:none;stroke-dashoffset:0;stroke-opacity:1;paint-order:normal" />
      <path
         inkscape:connector-curvature="0"
         id="rect1077"
         d="m 80.560231,112.78547 v 0.97462 c 0,0.072 0.05773,0.12971 0.129709,0.12971 h 1.266071 c 0.07198,0 0.130224,-0.0577 0.130224,-0.12971 v -0.97462 z"
         style="opacity:0.85;fill:#ff6600;fill-opacity:1;stroke:none;stroke-width:0.32265371;stroke-linecap:butt;stroke-linejoin:round;stroke-miterlimit:14.89999962;stroke-dasharray:none;stroke-dashoffset:0;stroke-opacity:1;paint-order:normal" />
      <rect
         ry="0"
         y="117.2263"
         x="80.814102"
         height="1.1101501"
         width="1.018267"
         id="rect1082"
         style="opacity:0.85;fill:#000000;fill-opacity:1;stroke:none;stroke-width:0.26499999;stroke-linecap:butt;stroke-linejoin:round;stroke-miterlimit:14.89999962;stroke-dasharray:none;stroke-dashoffset:0;stroke-opacity:1;paint-order:normal" />
      <path
         inkscape:connector-curvature="0"
         id="rect1084"
         d="m 80.557387,116.39094 v 0.42478 c 0,0.072 0.05773,0.13022 0.12971,0.13022 h 1.272272 c 0.07198,0 0.12971,-0.0582 0.12971,-0.13022 v -0.42478 z"
         style="opacity:0.85;fill:#00aad4;fill-opacity:1;stroke:none;stroke-width:0.34959957;stroke-linecap:butt;stroke-linejoin:round;stroke-miterlimit:14.89999962;stroke-dasharray:none;stroke-dashoffset:0;stroke-opacity:1;paint-order:normal" />
      <ellipse
         ry="0.85989583"
         rx="0.84335935"
         cy="115.79349"
         cx="135.83047"
         id="path1231"
         style="opacity:1;fill:#ffd42a;fill-opacity:1;stroke:none;stroke-width:0.26499999;stroke-linecap:butt;stroke-linejoin:round;stroke-miterlimit:14.89999962;stroke-dasharray:none;stroke-dashoffset:0;stroke-opacity:1;paint-order:normal" />
      <ellipse
         ry="0.85989583"
         rx="0.84335935"
         cy="117.72826"
         cx="138.42668"
         id="path1231-7"
         style="opacity:1;fill:#ff6600;fill-opacity:1;stroke:none;stroke-width:0.26499999;stroke-linecap:butt;stroke-linejoin:round;stroke-miterlimit:14.89999962;stroke-dasharray:none;stroke-dashoffset:0;stroke-opacity:1;paint-order:normal" />
      <ellipse
         ry="0.85989583"
         rx="0.84335935"
         cy="121.30013"
         cx="140.69218"
         id="path1231-74"
         style="opacity:1;fill:#006680;fill-opacity:1;stroke:none;stroke-width:0.26499999;stroke-linecap:butt;stroke-linejoin:round;stroke-miterlimit:14.89999962;stroke-dasharray:none;stroke-dashoffset:0;stroke-opacity:1;paint-order:normal" />
      <ellipse
         ry="0.85989583"
         rx="0.84335935"
         cy="119.84492"
         cx="135.63203"
         id="path1231-74-3"
         style="opacity:1;fill:#55d400;fill-opacity:1;stroke:none;stroke-width:0.26499999;stroke-linecap:butt;stroke-linejoin:round;stroke-miterlimit:14.89999962;stroke-dasharray:none;stroke-dashoffset:0;stroke-opacity:1;paint-order:normal" />
      <ellipse
         ry="0.85989583"
         rx="0.84335935"
         cy="122.98685"
         cx="134.82175"
         id="path1231-74-5"
         style="opacity:1;fill:#5fbcd3;fill-opacity:1;stroke:none;stroke-width:0.26499999;stroke-linecap:butt;stroke-linejoin:round;stroke-miterlimit:14.89999962;stroke-dasharray:none;stroke-dashoffset:0;stroke-opacity:1;paint-order:normal" />
    </g>
  </g>
</svg>
