<?xml version="1.0" encoding="UTF-8" standalone="no"?>
<!-- Created with Inkscape (http://www.inkscape.org/) -->

<svg
   xmlns:dc="http://purl.org/dc/elements/1.1/"
   xmlns:cc="http://creativecommons.org/ns#"
   xmlns:rdf="http://www.w3.org/1999/02/22-rdf-syntax-ns#"
   xmlns:svg="http://www.w3.org/2000/svg"
   xmlns="http://www.w3.org/2000/svg"
   xmlns:sodipodi="http://sodipodi.sourceforge.net/DTD/sodipodi-0.dtd"
   xmlns:inkscape="http://www.inkscape.org/namespaces/inkscape"
   width="34mm"
   height="34mm"
   viewBox="0 0 34 34"
   version="1.1"
   id="svg1415"
   inkscape:version="0.92.3 (2405546, 2018-03-11)"
   sodipodi:docname="logo2.svg">
  <defs
     id="defs1409" />
  <sodipodi:namedview
     id="base"
     pagecolor="#ffffff"
     bordercolor="#666666"
     borderopacity="1.0"
     inkscape:pageopacity="0.0"
     inkscape:pageshadow="2"
     inkscape:zoom="2.8"
     inkscape:cx="-33.480427"
     inkscape:cy="-4.5923509"
     inkscape:document-units="mm"
     inkscape:current-layer="layer1"
     showgrid="false"
     fit-margin-top="0"
     fit-margin-left="0"
     fit-margin-right="0"
     fit-margin-bottom="0"
     inkscape:window-width="2560"
     inkscape:window-height="1377"
     inkscape:window-x="-8"
     inkscape:window-y="-8"
     inkscape:window-maximized="1" />
  <metadata
     id="metadata1412">
    <rdf:RDF>
      <cc:Work
         rdf:about="">
        <dc:format>image/svg+xml</dc:format>
        <dc:type
           rdf:resource="http://purl.org/dc/dcmitype/StillImage" />
        <dc:title></dc:title>
      </cc:Work>
    </rdf:RDF>
  </metadata>
  <g
     inkscape:label="Capa 1"
     inkscape:groupmode="layer"
     id="layer1"
     transform="translate(-25.606189,-2.3693555)">
    <path
       style="font-style:normal;font-variant:normal;font-weight:normal;font-stretch:normal;font-size:medium;line-height:1.25;font-family:Georgia;-inkscape-font-specification:Georgia;letter-spacing:0px;word-spacing:0px;fill:#f9f9f9;fill-opacity:1;stroke:none;stroke-width:1.00015211"
       d="M 40.544344,6.0420182 A 13.843482,13.843482 0 0 0 27.408197,15.61456 h 0.543634 A 13.31104,13.31104 0 0 1 40.544344,6.5742855 13.31104,13.31104 0 0 1 53.77196,18.528594 h 0.548288 A 13.843482,13.843482 0 0 0 40.544344,6.0420182 Z m 7.950419,9.3797888 c -0.335989,0 -0.658227,0.0585 -0.966866,0.1757 -0.308642,0.113297 -0.575938,0.271748 -0.802535,0.474906 -0.238318,0.214876 -0.421944,0.458776 -0.55087,0.732255 -0.128926,0.273481 -0.193786,0.568767 -0.193786,0.885218 0,0.550867 0.129206,0.997719 0.387056,1.34152 0.26176,0.339896 0.627235,0.615338 1.096058,0.826306 0.238315,0.109392 0.521388,0.226896 0.849558,0.351917 0.328176,0.121112 0.619387,0.232253 0.873334,0.333829 0.37115,0.148462 0.650148,0.367186 0.837674,0.656291 0.187528,0.285201 0.281635,0.593962 0.281635,0.926042 0,0.226596 -0.03154,0.427772 -0.09405,0.60358 -0.05861,0.171901 -0.150419,0.32221 -0.275437,0.451136 -0.125021,0.128928 -0.288806,0.228885 -0.491958,0.299206 -0.199253,0.07033 -0.433747,0.10542 -0.703318,0.10542 -0.359429,0 -0.675815,-0.06841 -0.949296,-0.205155 -0.269571,-0.136738 -0.506362,-0.320366 -0.709517,-0.550871 -0.214876,-0.24613 -0.388581,-0.509873 -0.521415,-0.791166 -0.128926,-0.2852 -0.242361,-0.603363 -0.340032,-0.954981 h -0.47439 l 0.08217,2.847889 h 0.468704 l 0.251666,-0.427881 c 0.269571,0.164088 0.590029,0.304993 0.961181,0.422195 0.37115,0.113297 0.742479,0.1695 1.113626,0.1695 0.804812,0 1.478531,-0.238051 2.021583,-0.714685 0.225558,-0.197972 0.401873,-0.419466 0.533818,-0.661975 h 1.90686 l 0.558623,0.551387 h 1.321882 c 0.04174,0.262446 0.267724,0.465088 0.541568,0.465088 0.303377,0 0.551389,-0.248007 0.551389,-0.551388 5e-6,-0.303373 -0.248012,-0.550354 -0.551389,-0.550354 -0.285882,0 -0.51844,0.220067 -0.544669,0.499195 H 53.702197 L 53.142543,22.58106 H 51.25015 c 0.0773,-0.169314 0.131813,-0.349408 0.166399,-0.538985 h 2.89388 l 0.379823,0.320394 h 3.398758 c 0.04174,0.262414 0.267219,0.465082 0.541052,0.465088 0.303376,-6e-6 0.551389,-0.248013 0.551389,-0.551388 10e-6,-0.30338 -0.24801,-0.550865 -0.551389,-0.550871 -0.285591,6e-6 -0.518041,0.220359 -0.544669,0.499195 h -3.345532 l -0.378272,-0.320394 h -2.924887 c 0.01389,-0.110864 0.02379,-0.223619 0.02379,-0.341065 0,-0.07378 -0.0028,-0.145185 -0.0078,-0.214457 h 2.131653 l 0.322461,0.248564 h 1.496033 c 0.04174,0.262414 0.267737,0.465088 0.541568,0.465088 0.303379,-6e-6 0.55087,-0.248014 0.55087,-0.551388 0,-0.303381 -0.247491,-0.549837 -0.55087,-0.549837 -0.285922,-6e-6 -0.519017,0.220003 -0.545187,0.499194 h -1.44539 l -0.321426,-0.248563 h -2.195216 c -0.01704,-0.136087 -0.04391,-0.262524 -0.08165,-0.379822 h 2.635499 l 0.353983,-0.337964 h 2.544548 c 0.04861,0.254186 0.272434,0.447001 0.540536,0.447001 0.303374,-6e-6 0.550352,-0.246458 0.550352,-0.549837 1.3e-5,-0.303375 -0.246973,-0.551388 -0.550352,-0.551387 -0.291997,-5e-6 -0.530143,0.230593 -0.547772,0.518314 h -2.592605 l -0.352435,0.337447 h -2.630329 c -0.06878,-0.1764 -0.164954,-0.341404 -0.288356,-0.49506 l 1.58905,0.01344 0.846977,-0.729672 2.048454,-0.05064 c 0.04062,0.263729 0.266798,0.467155 0.54157,0.467155 0.303379,0 0.551387,-0.24749 0.551387,-0.55087 5e-6,-0.30338 -0.248008,-0.550354 -0.551387,-0.550354 -0.28385,0 -0.515173,0.217215 -0.544152,0.493509 l -2.095482,0.05013 -0.844907,0.729154 -1.6676,-0.01447 c -0.148968,-0.149976 -0.320244,-0.283441 -0.516247,-0.398942 -0.214876,-0.128929 -0.439965,-0.24414 -0.674378,-0.345715 -0.25785,-0.1133 -0.525148,-0.219106 -0.802534,-0.316777 -0.273476,-0.101575 -0.552992,-0.220342 -0.838192,-0.357084 -0.320363,-0.152367 -0.564264,-0.345917 -0.732256,-0.580326 -0.167994,-0.238318 -0.252179,-0.537156 -0.252179,-0.896586 0,-0.343802 0.130979,-0.635011 0.392739,-0.873332 0.26176,-0.238317 0.578147,-0.357601 0.949296,-0.357601 0.351618,0 0.648679,0.06841 0.890902,0.205156 0.242226,0.132834 0.446958,0.312905 0.61495,0.539501 0.171903,0.23441 0.311029,0.495857 0.416513,0.784965 0.109392,0.289106 0.207055,0.592018 0.293005,0.908472 h 0.47439 l -0.04704,-2.760037 h -0.468704 l -0.240294,0.398425 c -0.25004,-0.156275 -0.527259,-0.293106 -0.831993,-0.410311 -0.300826,-0.117205 -0.642906,-0.1757 -1.025777,-0.1757 z m -19.180225,0.187586 v 0.415995 c 0.105487,0.0078 0.238247,0.03529 0.398426,0.08217 0.164089,0.04297 0.290999,0.08799 0.380857,0.134875 0.132834,0.06251 0.220575,0.144404 0.263549,0.24598 0.04688,0.101578 0.07028,0.218566 0.07028,0.3514 v 5.954158 c -3e-6,0.152367 -0.02747,0.2775 -0.08217,0.375171 -0.05079,0.09767 -0.134459,0.171939 -0.251664,0.222725 -0.07032,0.03127 -0.195458,0.05644 -0.375171,0.07597 -0.175808,0.01953 -0.310346,0.03302 -0.404112,0.04082 v 0.416511 h 6.498828 l 0.175702,-2.473233 h -0.415996 c -0.08204,0.226597 -0.230574,0.523659 -0.44545,0.890902 -0.210971,0.363334 -0.396375,0.634704 -0.556556,0.81442 -0.0547,0.06251 -0.140661,0.115157 -0.257866,0.15813 -0.113297,0.03908 -0.238432,0.07062 -0.375171,0.09405 -0.140645,0.02347 -0.289176,0.0387 -0.44545,0.04651 -0.156273,0.0078 -0.306583,0.01188 -0.451136,0.01188 -0.32036,0 -0.570627,-0.0099 -0.750342,-0.02945 -0.175808,-0.02344 -0.308565,-0.07024 -0.398426,-0.14056 -0.09376,-0.07814 -0.154037,-0.1875 -0.181382,-0.328146 -0.02344,-0.14455 -0.03514,-0.345726 -0.03514,-0.60358 v -5.584672 c 0,-0.128925 0.02339,-0.249988 0.07028,-0.363285 0.05079,-0.113297 0.142603,-0.193409 0.275437,-0.240295 0.07814,-0.02733 0.203269,-0.05887 0.375168,-0.09405 0.175811,-0.03513 0.317974,-0.05446 0.427366,-0.05839 v -0.415995 z m 6.809404,0 v 0.415995 c 0.148461,0.0078 0.342009,0.05868 0.580327,0.152446 0.242226,0.08986 0.43348,0.199219 0.574124,0.328145 0.105487,0.09767 0.189675,0.236278 0.252183,0.415995 0.06251,0.179713 0.09353,0.359269 0.09353,0.538985 v 4.096391 c 0,0.543051 -0.02516,0.927855 -0.07596,1.154451 -0.05079,0.222693 -0.144896,0.388769 -0.281636,0.498161 -0.06251,0.0547 -0.218667,0.117264 -0.468704,0.187586 -0.250039,0.06642 -0.427818,0.103297 -0.533302,0.111104 v 0.416511 h 3.410646 v -0.416511 c -0.08986,-0.0039 -0.275265,-0.04256 -0.556556,-0.116789 -0.281292,-0.07423 -0.466696,-0.154345 -0.556554,-0.240295 -0.125018,-0.109392 -0.219125,-0.29302 -0.281638,-0.550871 -0.0586,-0.257851 -0.08785,-0.6274 -0.08785,-1.107943 v -4.28966 l 5.040003,6.80372 h 0.509529 v -6.088518 c 0,-0.425844 0.02339,-0.777328 0.07028,-1.054716 0.05079,-0.277384 0.146675,-0.465086 0.287319,-0.562757 0.09767,-0.06251 0.259681,-0.123301 0.486275,-0.181901 0.226598,-0.05857 0.39497,-0.0896 0.504362,-0.09353 v -0.415995 h -3.381705 v 0.415995 c 0.128926,0.0078 0.316627,0.04698 0.562758,0.117305 0.250036,0.07033 0.429593,0.142295 0.538985,0.216525 0.117203,0.08595 0.207238,0.260172 0.269751,0.521932 0.0625,0.25785 0.09353,0.628659 0.09353,1.11311 v 3.955831 l -4.676198,-6.340698 z m -9.507946,0.810286 v 0.663526 h 0.180868 c 0.04925,0 0.08888,0.03961 0.08888,0.08888 v 0.14056 h 0.271818 v -0.14056 c 0,-0.04925 0.03961,-0.08888 0.08888,-0.08888 h 0.184484 v -0.663526 z m -0.40566,0.147795 v 1.034562 h 1.626258 v -1.034562 h -0.270785 v 0.580843 c 0,0.0468 -0.0374,0.08423 -0.08423,0.08423 H 27.29399 v 0.148312 c 0,0.04361 -0.03495,0.07855 -0.07855,0.07855 h -0.389641 c -0.04361,0 -0.07906,-0.03495 -0.07906,-0.07855 v -0.148312 h -0.181385 c -0.0468,0 -0.08423,-0.0374 -0.08423,-0.08423 v -0.580843 z m 0.541052,0 h 0.135392 v 0.369486 h -0.135392 z m 0.203088,0 h 0.135909 v 0.369486 h -0.135909 z m 0.203605,0 h 0.135393 v 0.369486 h -0.135393 z m -0.541051,1.182357 v 0.518831 c 0,0.03834 0.03091,0.06925 0.06925,0.06925 h 0.673859 c 0.03834,0 0.06925,-0.03091 0.06925,-0.06925 v -0.518831 z m -0.457854,0.0041 c -0.0468,0 -0.08475,0.03792 -0.08475,0.08475 v 0.719853 h -5.29e-4 c 0.0027,0.239796 0.02061,0.234143 0.144177,0.394291 0.05769,0.07476 0.116861,0.154318 0.131775,0.176734 0.04196,0.06311 0.06098,0.143027 0.06098,0.256315 0,0.0093 3.44e-4,0.01134 5.29e-4,0.01757 -1.6e-5,5.29e-4 0,0.0011 0,0.0016 v 0.05839 c 0,0.03482 0.0282,0.06305 0.06305,0.06305 h 1.09709 c 0.03482,0 0.06305,-0.02821 0.06305,-0.06305 v -0.05478 -0.0036 c 2.25e-4,-0.0066 0.0011,-0.009 0.0011,-0.01912 0,-0.113288 0.019,-0.193204 0.06098,-0.256315 0.0149,-0.02242 0.07408,-0.101974 0.131776,-0.176734 0.122518,-0.158758 0.141007,-0.154102 0.144177,-0.387573 h 5.29e-4 v -0.72657 c 0,-0.0468 -0.03792,-0.08475 -0.08475,-0.08475 h -0.319878 v 0.51418 c 0,0.128916 -0.104151,0.23255 -0.233059,0.232545 h -0.621152 c -0.128915,0 -0.232544,-0.103629 -0.232544,-0.232545 v -0.51418 z m 29.885515,1.185974 c 0.227124,0 0.409795,0.182671 0.409795,0.409794 0,0.227129 -0.182671,0.409799 -0.409795,0.409794 -0.227124,0 -0.409795,-0.18267 -0.409795,-0.409794 -5e-6,-0.227123 0.182671,-0.409794 0.409795,-0.409794 z m -29.429212,0.72967 v 0.225826 c 0,0.03834 0.03091,0.06925 0.06925,0.06925 h 0.677478 c 0.03834,0 0.06873,-0.03091 0.06873,-0.06925 V 19.66961 Z m 30.814658,0.311609 c 0.227129,0 0.409792,0.18267 0.409792,0.409794 0,0.227124 -0.182663,0.409794 -0.409792,0.409794 -0.227124,6e-6 -0.409795,-0.182665 -0.409795,-0.409794 0,-0.227124 0.182671,-0.409794 0.409795,-0.409794 z m -30.677715,0.132808 v 0.591179 h 0.01085 A 13.843482,13.843482 0 0 0 40.563981,33.696659 13.843482,13.843482 0 0 0 53.82467,23.779436 H 53.252096 A 13.31104,13.31104 0 0 1 40.563981,33.164394 13.31104,13.31104 0 0 1 27.283655,20.705206 h 0.01085 v -0.591179 z m 29.192016,0.98702 c 0.227129,0 0.409794,0.182671 0.409794,0.409794 -1e-5,0.227123 -0.182671,0.409794 -0.409794,0.409794 -0.227124,0 -0.410305,-0.182671 -0.410311,-0.409794 0,-0.227129 0.183187,-0.409794 0.410311,-0.409794 z m 2.685624,0.765845 c 0.227123,0 0.409794,0.182154 0.409794,0.409277 0,0.227123 -0.182671,0.409794 -0.409794,0.409794 -0.227124,0 -0.409276,-0.182671 -0.409276,-0.409794 -8e-6,-0.227123 0.182147,-0.409277 0.409276,-0.409277 z m -3.121774,0.906404 c 0.227126,0 0.409795,0.182672 0.409795,0.409794 0,0.227125 -0.182669,0.409789 -0.409795,0.409795 -0.227129,0 -0.409276,-0.182665 -0.409276,-0.409795 0,-0.227122 0.182147,-0.409794 0.409276,-0.409794 z"
       id="path1196"
       inkscape:connector-curvature="0" />
  </g>
</svg>
